SIPNOSIS

Charlie (Logan Lerman), un joven tímido y marginado, escribe una serie de cartas a una persona sin identificar en las que aborda asuntos como la amistad, los conflictos familiares, las primeras citas, el sexo o las drogas. El protagonista tendrá que afrontar el primer amor (Emma Watson), el suicidio de su primer amigo y su propia enfermedad mental. Al mismo tiempo, lucha por encontrar un grupo de personas con las que pueda encajar y sentirse a gusto.

DATOS TECNICOS

Format : Matroska
Format version : Version 4 / Version 2
File size : 3.74 GiB
Duration : 1h 42mn
Overall bit rate : 5 222 Kbps
Encoded date : UTC 2013-02-08 19:27:15
Writing application : mkvmerge v6.0.0 ('Coming Up For Air') built on Jan 20 2013 09:52:00
Writing library : libebml v1.3.0 + libmatroska v1.4.0

Video
ID : 1
Format : AVC
Format/Info : Advanced Video Codec
Format profile : High@L4.1
Format settings, CABAC : Yes
Format settings, ReFrames : 5 frames
Codec ID : V_MPEG4/ISO/AVC
Duration : 1h 42mn
Bit rate : 4 584 Kbps
Width : 1 280 pixels
Height : 720 pixels
Display aspect ratio : 16:9
Frame rate mode : Constant
Frame rate : 23.976 fps
Color space : YUV
Chroma subsampling : 4:2:0
Bit depth : 8 bits
Scan type : Progressive
Bits/(Pixel*Frame) : 0.207
Stream size : 3.21 GiB (86%)
Writing library : x264 core 129 r2245 bc13772
Encoding settings : cabac=1 / ref=5 / deblock=1:0:0 / analyse=0x3:0x133 / me=umh / subme=7 / psy=1 / psy_rd=1.00:0.00 / mixed_ref=1 / me_range=16 / chroma_me=1 / trellis=1 / 8x8dct=1 / cqm=0 / deadzone=21,11 / fast_pskip=0 / chroma_qp_offset=-2 / threads=6 / lookahead_threads=1 / sliced_threads=0 / nr=0 / decimate=1 / interlaced=0 / bluray_compat=0 / constrained_intra=0 / bframes=3 / b_pyramid=2 / b_adapt=1 / b_bias=0 / direct=1 / weightb=1 / open_gop=0 / weightp=2 / keyint=250 / keyint_min=23 / scenecut=40 / intra_refresh=0 / rc_lookahead=40 / rc=2pass / mbtree=1 / bitrate=4584 / ratetol=1.0 / qcomp=0.60 / qpmin=0 / qpmax=69 / qpstep=4 / cplxblur=20.0 / qblur=0.5 / ip_ratio=1.40 / aq=1:1.00
Language : English
Default : Yes
Forced : No

Audio
ID : 2
Format : AC-3
Format/Info : Audio Coding 3
Mode extension : CM (complete main)
Format settings, Endianness : Big
Codec ID : A_AC3
Duration : 1h 42mn
Bit rate mode : Constant
Bit rate : 640 Kbps
Channel(s) : 6 channels
Channel positions : Front: L C R, Side: L R, LFE
Sampling rate : 48.0 KHz
Bit depth : 16 bits
Compression mode : Lossy
Stream size : 470 MiB (12%)
Title : Español Latino
Language : Spanish
Default : Yes
Forced : No

Menu
00:00:00.000 : en:00:00:00.000
00:05:04.387 : en:00:05:04.387
00:10:24.624 : en:00:10:24.624
00:17:06.984 : en:00:17:06.984
00:21:38.005 : en:00:21:38.005
00:28:31.501 : en:00:28:31.501
00:33:09.070 : en:00:33:09.070
00:39:55.351 : en:00:39:55.351
00:47:17.001 : en:00:47:17.001
00:54:38.859 : en:00:54:38.859
00:58:15.951 : en:00:58:15.951
01:03:17.961 : en:01:03:17.961
01:10:13.126 : en:01:10:13.126
01:18:31.790 : en:01:18:31.790
01:23:11.612 : en:01:23:11.612
01:31:12.384 : en:01:31:12.384